<?xml version="1.0" standalone="no"?>
<!DOCTYPE svg PUBLIC "-//W3C//DTD SVG 20010904//EN"
 "http://www.w3.org/TR/2001/REC-SVG-20010904/DTD/svg10.dtd">
<svg version="1.0" xmlns="http://www.w3.org/2000/svg"
 width="558.000000pt" height="558.000000pt" viewBox="0 0 558.000000 558.000000"
 preserveAspectRatio="xMidYMid meet">
<metadata>
Created by potrace 1.14, written by Peter Selinger 2001-2017
</metadata>
<g transform="translate(0.000000,558.000000) scale(0.100000,-0.100000)"
fill="#000000" stroke="none">
<path d="M2979 4157 c-38 -61 -78 -123 -143 -226 -46 -72 -48 -73 -60 -50 -7
13 -50 91 -95 172 -83 148 -84 148 -107 132 -82 -52 -76 -45 -58 -72 9 -14 30
-50 46 -82 17 -31 34 -60 38 -66 4 -5 18 -30 32 -55 14 -25 39 -70 57 -101
l31 -56 -20 -26 c-11 -14 -20 -27 -20 -30 0 -5 -207 -365 -299 -522 -28 -47
-51 -88 -51 -91 0 -3 -8 -18 -19 -32 -10 -15 -29 -47 -43 -72 -14 -25 -116
-202 -227 -394 -110 -191 -201 -350 -201 -353 0 -2 -13 -24 -30 -48 -16 -24
-30 -45 -30 -48 0 -2 -40 -73 -89 -158 -49 -85 -87 -156 -85 -158 2 -2 73 -4
159 -5 l155 -1 9 25 c6 14 17 45 25 70 29 88 87 226 137 325 53 104 171 305
192 327 7 7 21 26 31 43 25 38 21 32 118 150 95 115 183 206 283 295 l69 62
12 -39 c6 -21 12 -105 13 -188 3 -224 17 -294 86 -422 50 -92 68 -164 67 -258
-1 -44 -3 -90 -6 -102 -24 -114 -15 -213 25 -262 l20 -24 482 0 c376 0 481 3
479 13 -1 6 -88 158 -192 336 -105 178 -190 326 -190 328 0 1 -24 43 -54 92
-29 49 -78 132 -108 184 -30 52 -121 208 -200 345 -80 138 -154 266 -165 285
-11 19 -52 89 -90 155 -39 66 -80 140 -92 163 l-22 44 24 36 c135 205 227 356
220 362 -4 5 -25 17 -45 29 l-37 20 -32 -52z"/>
</g>
</svg>
